<svg width="45" height="45" xmlns="http://www.w3.org/2000/svg" xmlns:svg="http://www.w3.org/2000/svg" version="1.1" xml:space="preserve">
 <g class="layer">
  <title>Layer 1</title>
  <g id="svg_1">
   <path d="m35.66,6.57l-26.32,0c-5.17,0 -9.35,4.19 -9.35,9.35l0,13.17c0,5.17 4.19,9.35 9.35,9.35l26.32,0c5.17,0 9.35,-4.19 9.35,-9.35l0,-13.17c0,-5.17 -4.19,-9.35 -9.35,-9.35zm-6.32,16.57l-12.31,5.87c-0.33,0.16 -0.71,-0.08 -0.71,-0.45l0,-12.11c0,-0.37 0.39,-0.61 0.71,-0.43l12.31,6.24c0.37,0.19 0.36,0.71 -0.02,0.89l0.02,0z" fill="#F61C0D" id="svg_2"/>
  </g>
 </g>
</svg>